<svg width="256" height="256" viewBox="0 0 256 256" fill="none" xmlns="http://www.w3.org/2000/svg">
<path d="M250.73 210.63L194.73 98.63C193.733 96.6384 192.201 94.9636 190.306 93.7932C188.411 92.6227 186.227 92.0028 184 92.0028C181.773 92.0028 179.589 92.6227 177.694 93.7932C175.799 94.9636 174.267 96.6384 173.27 98.63L152.75 139.63C138.926 138.422 125.614 133.815 114 126.22C128.112 109.806 136.941 89.5143 139.33 68H160C163.183 68 166.235 66.7357 168.485 64.4853C170.736 62.2348 172 59.1826 172 56C172 52.8174 170.736 49.7652 168.485 47.5147C166.235 45.2643 163.183 44 160 44H108V32C108 28.8174 106.736 25.7652 104.485 23.5147C102.235 21.2643 99.1826 20 96 20C92.8174 20 89.7652 21.2643 87.5147 23.5147C85.2643 25.7652 84 28.8174 84 32V44H32C28.8174 44 25.7652 45.2643 23.5147 47.5147C21.2643 49.7652 20 52.8174 20 56C20 59.1826 21.2643 62.2348 23.5147 64.4853C25.7652 66.7357 28.8174 68 32 68H115.13C112.878 83.6393 106.246 98.322 96 110.35C90.9997 104.499 86.8273 97.9876 83.6 91C82.9679 89.5304 82.0483 88.2019 80.8953 87.0929C79.7423 85.9838 78.3792 85.1165 76.8861 84.542C75.3931 83.9674 73.8002 83.6972 72.2011 83.7472C70.6021 83.7972 69.0292 84.1665 67.575 84.8333C66.1208 85.5 64.8145 86.4509 63.7331 87.6298C62.6517 88.8088 61.817 90.1921 61.278 91.6984C60.739 93.2047 60.5066 94.8035 60.5945 96.4009C60.6825 97.9983 61.0889 99.562 61.79 101C65.9883 110.129 71.4447 118.625 78 126.24C64.3435 135.229 48.3495 140.013 32 140C28.8174 140 25.7652 141.264 23.5147 143.515C21.2643 145.765 20 148.817 20 152C20 155.183 21.2643 158.235 23.5147 160.485C25.7652 162.736 28.8174 164 32 164C55.0404 164.019 77.4768 156.632 96 142.93C109.433 152.816 124.966 159.468 141.39 162.37L117.26 210.63C116.51 212.044 116.05 213.593 115.908 215.187C115.766 216.781 115.944 218.387 116.431 219.911C116.919 221.435 117.707 222.846 118.748 224.062C119.789 225.277 121.063 226.272 122.494 226.987C123.925 227.703 125.485 228.125 127.082 228.229C128.679 228.333 130.28 228.116 131.792 227.592C133.304 227.067 134.696 226.246 135.886 225.176C137.075 224.105 138.039 222.808 138.72 221.36L151.41 196H216.58L229.26 221.36C230.683 224.207 233.178 226.372 236.198 227.379C239.217 228.386 242.513 228.153 245.36 226.73C248.207 225.307 250.372 222.811 251.379 219.792C252.386 216.773 252.153 213.477 250.73 210.63ZM163.41 172L184 130.83L204.58 172H163.41Z" fill="white"/>
</svg>
