<svg width="512" height="138" viewBox="0 0 512 138" fill="none" xmlns="http://www.w3.org/2000/svg">
<g clip-path="url(#clip0_40_2)">
<path d="M340.657 0V100.203C353.017 100.777 365.344 101.474 377.637 102.293V123.538C358.14 122.238 338.624 121.251 319.095 120.579V0H340.657ZM512 0.012L483.923 65.106L511.993 137.544L511.962 137.557C503.778 136.393 495.586 135.285 487.386 134.234L471.623 93.578L455.71 130.46C448.161 129.626 440.607 128.839 433.048 128.1L460.419 64.67L435.352 0.013H458.677L472.712 36.197L488.318 0.012H512ZM245.093 119.526V0.011H305.283V21.447H266.655V49.227H295.882V70.472H266.655V119.522L245.093 119.526ZM164.58 21.448V0.01H231.27V21.447H208.705V120.107C201.508 120.297 194.319 120.519 187.145 120.79V21.448H164.58ZM90.868 126.966V0.014H150.758V21.449H112.427V50.485C121.233 50.372 133.754 50.245 141.544 50.263V71.51C131.793 71.39 120.786 71.644 112.427 71.727V103.891C125.195 102.885 137.972 102.011 150.758 101.271V122.518C130.771 123.671 110.805 125.155 90.868 126.968M48.571 77.854L48.57 0.01H70.132V128.97C62.25 129.781 54.3823 130.642 46.529 131.554L21.56 59.824V134.626C14.36 135.563 7.17333 136.542 0 137.562V0.012H20.491L48.571 77.854ZM395.425 124.819V0.012H416.988V126.6C409.809 125.96 402.624 125.369 395.425 124.819Z" fill="#DB202C"/>
</g>
<defs>
<clipPath id="clip0_40_2">
<rect width="512" height="138" fill="white"/>
</clipPath>
</defs>
</svg>
