<svg width="52" height="52" viewBox="0 0 52 52" fill="none" xmlns="http://www.w3.org/2000/svg">
<path d="M45.0938 26C45.0938 26.3232 44.9653 26.6332 44.7368 26.8618C44.5082 27.0903 44.1982 27.2188 43.875 27.2188H27.2188V43.875C27.2188 44.1982 27.0903 44.5082 26.8618 44.7368C26.6332 44.9653 26.3232 45.0938 26 45.0938C25.6768 45.0938 25.3668 44.9653 25.1382 44.7368C24.9097 44.5082 24.7812 44.1982 24.7812 43.875V27.2188H8.125C7.80177 27.2188 7.49177 27.0903 7.26321 26.8618C7.03465 26.6332 6.90625 26.3232 6.90625 26C6.90625 25.6768 7.03465 25.3668 7.26321 25.1382C7.49177 24.9097 7.80177 24.7812 8.125 24.7812H24.7812V8.125C24.7812 7.80177 24.9097 7.49177 25.1382 7.26321C25.3668 7.03465 25.6768 6.90625 26 6.90625C26.3232 6.90625 26.6332 7.03465 26.8618 7.26321C27.0903 7.49177 27.2188 7.80177 27.2188 8.125V24.7812H43.875C44.1982 24.7812 44.5082 24.9097 44.7368 25.1382C44.9653 25.3668 45.0938 25.6768 45.0938 26Z" fill="white"/>
</svg>
